<?xml version="1.0" encoding="UTF-8"?>
<svg width="154px" height="82px" viewBox="0 0 154 82" version="1.1" xmlns="http://www.w3.org/2000/svg" xmlns:xlink="http://www.w3.org/1999/xlink">
    <!-- Generator: Sketch 49 (51002) - http://www.bohemiancoding.com/sketch -->
    <title>redshift</title>
    <desc>Created with Sketch.</desc>
    <defs></defs>
    <g id="Page-1" stroke="none" stroke-width="1" fill="none" fill-rule="evenodd">
        <g id="Red-Shift-Copy-16" transform="translate(-34.000000, -27.000000)">
            <g id="redshift" transform="translate(29.000000, 28.000000)">
                <path d="M54.2920506,39.5711511 C49.7222582,43.2650881 46.8,48.9162791 46.8,55.25 C46.8,61.0467305 49.2477494,66.2717585 53.1660365,69.9478722 C48.3036148,76.4163954 40.565374,80.6 31.85,80.6 C17.1316114,80.6 5.2,68.6683886 5.2,53.95 C5.2,39.2316114 17.1316114,27.3 31.85,27.3 C41.2726841,27.3 49.5531976,32.1902137 54.2920506,39.5711511 Z" id="Oval-5" fill="#FE524A"></path>
                <path d="M11.8274,50.344 L13.9763,50.344 L13.9763,51.5049 C14.0092335,51.4884333 14.0380499,51.4637335 14.06275,51.4308 C14.0874501,51.3978665 14.1244997,51.3567002 14.1739,51.3073 C14.2068335,51.2578998 14.2479997,51.2085002 14.2974,51.1591 L14.4456,51.0109 C14.577334,50.879166 14.7214159,50.7556672 14.87785,50.6404 C15.0342841,50.5251328 15.2195323,50.4181005 15.4336,50.3193 C15.631201,50.2204995 15.8534988,50.1422836 16.1005,50.08465 C16.3475012,50.0270164 16.6109653,49.9982 16.8909,49.9982 L17.6813,49.9488 L17.6813,52.0977 L17.0885,52.0977 C16.627431,52.1800337 16.232235,52.3035325 15.9029,52.4682 C15.573565,52.6328675 15.2936345,52.8386988 15.0631,53.0857 C14.8490323,53.3327012 14.6720174,53.5920486 14.53205,53.86375 C14.3920826,54.1354514 14.2809337,54.4112653 14.1986,54.6912 C14.132733,54.9052677 14.0833335,55.111099 14.0504,55.3087 C14.0174665,55.506301 14.001,55.6956658 14.001,55.8768 C13.9845332,56.074401 13.9763,56.2472993 13.9763,56.3955 L13.9763,62.2 L11.8274,62.2 L11.8274,50.344 Z M21.7087,56.766 L27.5379,53.4562 C27.5049665,53.4397333 27.4720335,53.4191501 27.4391,53.39445 C27.4061665,53.3697499 27.3732335,53.3327002 27.3403,53.2833 C27.3073665,53.2503665 27.2703169,53.2092002 27.22915,53.1598 C27.1879831,53.1103998 27.1427002,53.0610002 27.0933,53.0116 C27.0438998,52.9786665 26.9903836,52.9416169 26.93275,52.90045 C26.8751164,52.8592831 26.8216002,52.8140002 26.7722,52.7646 C26.706333,52.7316665 26.640467,52.6946169 26.5746,52.65345 C26.508733,52.6122831 26.4346337,52.5752335 26.3523,52.5423 C26.1876325,52.4599663 25.9941511,52.4023335 25.77185,52.3694 C25.5495489,52.3364665 25.2984347,52.32 25.0185,52.32 C24.3762968,52.32 23.8123191,52.4352655 23.32655,52.6658 C22.8407809,52.8963345 22.433235,53.2338978 22.1039,53.6785 C21.774565,54.1231022 21.5275675,54.5923975 21.3629,55.0864 C21.1982325,55.5804025 21.1159,56.090864 21.1159,56.6178 L21.1159,56.6919 C21.1159,57.1694357 21.2023491,57.6263812 21.37525,58.06275 C21.5481509,58.4991188 21.799265,58.914898 22.1286,59.3101 C22.457935,59.705302 22.8654809,60.001699 23.35125,60.1993 C23.8370191,60.396901 24.3927635,60.4957 25.0185,60.4957 C25.6936367,60.4957 26.2576144,60.4174841 26.71045,60.26105 C27.1632856,60.1046159 27.5049655,59.8699682 27.7355,59.5571 C27.9660345,59.227765 28.1759824,58.8408022 28.36535,58.3962 C28.5547176,57.9515978 28.7234993,57.4493695 28.8717,56.8895 L28.8717,56.8648 L28.8964,56.8401 L28.8964,56.8154 L31.0453,56.9389 L31.0453,57.02535 C31.0453,57.0500501 31.0535333,57.0706333 31.07,57.0871 L31.07,57.29705 C31.07,57.3217501 31.0782333,57.3423333 31.0947,57.3588 L31.0947,57.4823 C31.0947,57.614034 31.0864667,57.7498826 31.07,57.88985 C31.0535333,58.0298174 31.0288335,58.1738993 30.9959,58.3221 C30.9794333,58.387967 30.9588501,58.4620663 30.93415,58.5444 C30.9094499,58.6267337 30.8888667,58.700833 30.8724,58.7667 C30.8394665,58.8490337 30.8106501,58.9272496 30.78595,59.00135 C30.7612499,59.0754504 30.7324335,59.1536663 30.6995,59.236 C30.501899,59.6476687 30.238435,60.051098 29.9091,60.4463 C29.579765,60.841502 29.1763357,61.2119983 28.6988,61.5578 C28.237731,61.9036017 27.6984531,62.1629491 27.08095,62.33585 C26.4634469,62.5087509 25.7759705,62.5952 25.0185,62.5952 C24.1457623,62.5952 23.3389037,62.4593514 22.5979,62.18765 C21.8568963,61.9159486 21.190003,61.5001695 20.5972,60.9403 C19.9879303,60.3639638 19.5351015,59.7176536 19.2387,59.00135 C18.9422985,58.2850464 18.7941,57.4905377 18.7941,56.6178 C18.7941,55.6956621 18.9175988,54.8805702 19.1646,54.1725 C19.4116012,53.4644298 19.7820975,52.8551692 20.2761,52.3447 C20.7701025,51.8342308 21.2887973,51.414335 21.8322,51.085 C22.3756027,50.755665 22.943697,50.5169007 23.5365,50.3687 C23.602367,50.3522333 23.6641164,50.3398834 23.72175,50.33165 C23.7793836,50.3234166 23.841133,50.3110667 23.907,50.2946 C23.972867,50.2946 24.0346164,50.2904834 24.09225,50.28225 C24.1498836,50.2740166 24.211633,50.2616667 24.2775,50.2452 C24.409234,50.2287333 24.5368494,50.2163834 24.66035,50.20815 C24.7838506,50.1999166 24.9032328,50.1958 25.0185,50.1958 C25.6936367,50.1958 26.3234804,50.2904824 26.90805,50.47985 C27.4926196,50.6692176 28.0318975,50.9532648 28.5259,51.332 C29.0034357,51.7107352 29.4356814,52.130631 29.82265,52.5917 C30.2096186,53.052769 30.5512985,53.546764 30.8477,54.0737 L22.672,58.495 L21.7087,56.766 Z M42.8285,45.0829 L45.175,45.0829 L45.175,56.3461 C45.175,56.3625667 45.1832333,56.3790333 45.1997,56.3955 L45.1997,56.5684 C45.1997,56.7330675 45.1873501,56.914199 45.16265,57.1118 C45.1379499,57.309401 45.1009003,57.5234655 45.0515,57.754 C45.0020998,57.9680677 44.944467,58.1944821 44.8786,58.43325 C44.812733,58.6720179 44.7304005,58.9066655 44.6316,59.1372 C44.433999,59.5818022 44.1828849,60.001698 43.87825,60.3969 C43.5736152,60.792102 43.2154687,61.1708315 42.8038,61.5331 C42.3921313,61.8953685 41.9063695,62.1629491 41.3465,62.33585 C40.7866305,62.5087509 40.1526702,62.5952 39.4446,62.5952 L39.1482,62.5952 C38.1601951,62.5457998 37.303937,62.389368 36.5794,62.1259 C35.8548631,61.862432 35.262069,61.4754692 34.801,60.965 C34.339931,60.4545308 33.977668,59.9193695 33.7142,59.3595 C33.450732,58.7996305 33.2778338,58.2150697 33.1955,57.6058 L33.1461,57.3588 C33.1296333,57.2764663 33.1214,57.1941337 33.1214,57.1118 L33.1214,56.272 C33.1049333,55.4980628 33.195499,54.8023531 33.3931,54.18485 C33.590701,53.5673469 33.887098,53.028069 34.2823,52.567 C34.677502,52.105931 35.0973978,51.7189682 35.542,51.4061 C35.9866022,51.0932318 36.439431,50.8544675 36.9005,50.6898 C37.032234,50.6403998 37.1680826,50.5951169 37.30805,50.55395 C37.4480174,50.5127831 37.5920993,50.4839667 37.7403,50.4675 C37.872034,50.4345665 38.0078826,50.4139834 38.14785,50.40575 C38.2878174,50.3975166 38.423666,50.3934 38.5554,50.3934 C39.082336,50.3934 39.5392814,50.4139831 39.92625,50.45515 C40.3132186,50.4963169 40.6301988,50.5580663 40.8772,50.6404 C41.1242012,50.706267 41.346499,50.7844829 41.5441,50.87505 C41.741701,50.9656171 41.9145993,51.0602995 42.0628,51.1591 L42.0628,53.4562 C42.0298665,53.4562 41.9928169,53.4438501 41.95165,53.41915 C41.9104831,53.3944499 41.8652003,53.3738667 41.8158,53.3574 C41.7993333,53.3409333 41.7746335,53.3244667 41.7417,53.308 C41.7087665,53.2915333 41.6840668,53.2750667 41.6676,53.2586 C41.6346665,53.2586 41.6058501,53.2503667 41.58115,53.2339 C41.5564499,53.2174333 41.5276335,53.2009667 41.4947,53.1845 C41.3300325,53.1021663 41.1406677,53.0239504 40.9266,52.94985 C40.7125323,52.8757496 40.4820012,52.805767 40.235,52.7399 C39.9879988,52.6575663 39.7410012,52.5999335 39.494,52.567 C39.2469988,52.5340665 39.0000012,52.5176 38.753,52.5176 L38.4566,52.5176 C38.4401333,52.5340667 38.4236668,52.5423 38.4072,52.5423 L38.3578,52.5423 C37.962598,52.5917002 37.5879851,52.715199 37.23395,52.9128 C36.8799149,53.110401 36.538235,53.373865 36.2089,53.7032 C35.8960318,54.032535 35.6531509,54.4236144 35.48025,54.87645 C35.3073491,55.3292856 35.2209,55.8438638 35.2209,56.4202 L35.2209,56.5684 C35.2209,56.5848667 35.2291333,56.6013333 35.2456,56.6178 L35.2456,56.8154 C35.311467,57.3752695 35.4226159,57.8569146 35.57905,58.26035 C35.7354841,58.6637854 35.9371988,58.997232 36.1842,59.2607 C36.4312012,59.524168 36.686432,59.7382325 36.9499,59.9029 C37.213368,60.0675675 37.4932985,60.1910663 37.7897,60.2734 C37.921434,60.3228002 38.0572826,60.3639665 38.19725,60.3969 C38.3372174,60.4298335 38.473066,60.4545333 38.6048,60.471 C38.736534,60.4874667 38.8641494,60.4957 38.98765,60.4957 L39.3458,60.4957 C39.9715365,60.4957 40.5108144,60.3722012 40.96365,60.1252 C41.4164856,59.8781988 41.774632,59.4994692 42.0381,58.989 C42.301568,58.4949975 42.499166,57.951603 42.6309,57.3588 C42.762634,56.765997 42.8285,56.1238035 42.8285,55.4322 L42.8285,45.0829 Z" id="red" fill="#FFFFFF"></path>
                <g id="Group-2" transform="translate(53.300000, 0.000000)">
                    <path d="M16.7483214,54.7211718 C18.8346175,56.4279627 20.1675289,58.9587217 20.1675289,61.371771 C20.1675289,63.0785619 18.9505228,70.2 10.4894331,70.2 C6.43274629,70.2 1.68062741,68.3754993 0.115905338,64.2556591 C0,64.0202397 0,63.7259654 0,63.4316911 C0,61.9603196 1.33291139,60.5478029 2.95558613,60.5478029 C3.7669235,60.5478029 4.63621354,60.959787 5.15778756,61.6660453 C6.49069895,63.5494008 7.88156302,64.314514 10.3735278,64.4322237 C14.0824986,64.4322237 14.372262,61.8426099 14.4302146,61.371771 C14.4302146,59.3707057 12.4018712,58.5467377 9.62014309,58.2524634 C6.08503027,57.8404794 0,55.898269 0,49.4242344 C0,43.7741678 4.69416621,40.4194407 9.7940011,40.4194407 C11.7064392,40.4194407 13.6188773,40.8902796 15.3574573,41.7731025 C15.936984,42.0673768 20.1675289,44.0095872 20.1675289,47.5997337 C20.0516236,49.0711052 18.7766648,50.424767 17.2119428,50.424767 C15.8210787,50.424767 15.241552,49.4830892 14.54612,48.4237017 C13.7347826,46.7757656 11.3007705,46.2460719 9.67809576,46.2460719 C7.533847,46.2460719 5.67936159,47.482024 5.67936159,49.4830892 C5.67936159,53.7206391 11.9382499,50.9544607 16.7483214,54.7211718 Z M36.626087,40.5960053 C43.6963126,40.5960053 49.4336269,46.4226365 49.4336269,53.5440746 L49.4336269,67.1984021 C49.4336269,68.8463382 48.1007155,70.1411451 46.5359934,70.1411451 C44.9712713,70.1411451 43.6963126,68.8463382 43.6963126,67.1984021 L43.6963126,53.5440746 C43.6963126,49.6007989 40.5089158,46.4226365 36.626087,46.4226365 C32.7432581,46.4226365 29.613814,49.6007989 29.613814,53.5440746 L29.613814,67.1984021 C29.613814,68.8463382 28.3388553,70.1411451 26.7161805,70.1411451 C25.1514584,70.1411451 23.8764997,68.8463382 23.8764997,67.1984021 L23.8764997,28.8838881 C23.8764997,27.2948069 25.1514584,26 26.7161805,26 C28.3388553,26 29.613814,27.2948069 29.613814,28.8838881 L29.613814,42.7147803 C31.6421574,41.3611185 34.0182168,40.5960053 36.626087,40.5960053 Z M55.8663731,70.2 C54.2436984,70.2 52.9687397,68.9051931 52.9687397,67.257257 L52.9687397,43.5387483 C52.9687397,41.9496671 54.2436984,40.6548602 55.8663731,40.6548602 C57.4310952,40.6548602 58.7060539,41.9496671 58.7060539,43.5387483 L58.7060539,67.257257 C58.7060539,68.9051931 57.4310952,70.2 55.8663731,70.2 Z M55.8663731,34.7693742 C55.1129884,34.7693742 54.3596037,34.4750999 53.8380297,33.9454061 C53.3164557,33.4157124 52.9687397,32.6505992 52.9687397,31.885486 C52.9687397,31.1203728 53.3164557,30.3552597 53.8380297,29.8255659 C54.3596037,29.2958722 55.1129884,28.942743 55.8663731,28.942743 C56.6197578,28.942743 57.3731425,29.2958722 57.8947166,29.8255659 C58.4162906,30.3552597 58.7060539,31.1203728 58.7060539,31.885486 C58.7060539,32.6505992 58.4162906,33.4157124 57.8947166,33.9454061 C57.3731425,34.4750999 56.6197578,34.7693742 55.8663731,34.7693742 Z M79.2792515,40.5960053 C80.9019263,40.5960053 82.176885,41.8908123 82.176885,43.4798935 C82.176885,45.1278296 80.9019263,46.4226365 79.2792515,46.4226365 L74.1794166,46.4226365 L74.1794166,67.1984021 C74.1794166,68.8463382 72.9044579,70.1411451 71.2817832,70.1411451 C69.7170611,70.1411451 68.4421024,68.8463382 68.4421024,67.1984021 L68.4421024,46.4226365 L65.2547056,46.4226365 C63.6899835,46.4226365 62.4150248,45.1278296 62.4150248,43.4798935 C62.4150248,41.8908123 63.6899835,40.5960053 65.2547056,40.5960053 L68.4421024,40.5960053 C68.3841497,36.4173103 69.8909191,32.5917443 72.6726472,29.7667111 C74.2373693,28.1776298 76.033902,27.0005326 78.1201981,26.2942743 C79.5690149,25.7057257 81.2496423,26.5296937 81.7712163,28.0599201 C82.2927903,29.5312916 81.5394056,31.2380826 80.0326362,31.7677763 C78.8156302,32.1797603 77.7145294,32.8860186 76.7293341,33.8865513 C74.990754,35.6521971 74.1794166,37.9475366 74.1794166,40.5960053 L79.2792515,40.5960053 Z M102.402367,40.6548602 C104.025041,40.6548602 105.3,41.9496671 105.3,43.5387483 C105.3,45.1278296 104.025041,46.4814913 102.402367,46.4814913 L98.287727,46.4814913 L98.287727,67.257257 C98.287727,68.8463382 97.0127683,70.2 95.3900936,70.2 C93.8253715,70.2 92.5504128,68.8463382 92.5504128,67.257257 L92.5504128,46.4814913 L88.3778206,46.4814913 C86.8130985,46.4814913 85.5381398,45.1278296 85.5381398,43.5387483 C85.5381398,41.9496671 86.8130985,40.6548602 88.3778206,40.6548602 L92.5504128,40.6548602 L92.5504128,28.8838881 C92.5504128,27.2948069 93.8253715,26 95.3900936,26 C97.0127683,26 98.287727,27.2948069 98.287727,28.8838881 L98.287727,40.6548602 L102.402367,40.6548602 Z" id="shift" fill="#4A4A4A"></path>
                    <g id="Group" transform="translate(50.700000, 0.000000)" stroke="#FE524A">
                        <path d="M2.6,30.2597599 C5.26009115,25.4571232 10.5715983,21.5501408 18.5345215,18.5388127 C26.4974447,15.5274845 34.9504069,14.1206323 43.8934082,14.318256" id="Path-2" stroke-width="1.3" transform="translate(23.246704, 22.279880) rotate(-12.000000) translate(-23.246704, -22.279880) "></path>
                        <circle id="Oval-4-Copy" stroke-width="1.04" fill="#FE524A" cx="22.1" cy="16.9" r="6.5"></circle>
                        <circle id="Oval-4-Copy" stroke-width="1.3" fill="#FE524A" cx="45.5" cy="7.8" r="7.8"></circle>
                        <circle id="Oval-4-Copy" stroke-width="0.78" fill="#FE524A" cx="4.55" cy="31.85" r="4.55"></circle>
                    </g>
                </g>
            </g>
        </g>
    </g>
</svg>